<svg width="1920" height="1976" viewBox="0 0 1920 1976" fill="none" xmlns="http://www.w3.org/2000/svg">
<rect width="1920" height="1976" fill="white"/>
<path fill-rule="evenodd" clip-rule="evenodd" d="M1920 167.877L1888 183.486C1856 199.094 1792 229.772 1728 209.32C1664 188.33 1600 116.208 1536 126.435C1472 136.661 1408 178.103 1344 183.486C1280 188.33 1216 157.651 1152 110.826C1088 64.5395 1024 54.3133 960 80.1478C896 105.982 832 167.877 768 173.259C704 178.103 640 126.435 576 95.7561C512 64.5395 448 54.3133 384 64.5394C320 74.7656 196 97.7086 132 139.151C68 180.056 79 168.724 47 194.558L0 234.89V12.8705H32C64 12.8705 128 12.8705 192 12.8705C256 12.8705 320 12.8705 384 12.8705C448 12.8705 512 12.8705 576 12.8705C640 12.8705 704 12.8705 768 12.8705C832 12.8705 896 12.8705 960 12.8705C1024 12.8705 1088 12.8705 1152 12.8705C1216 12.8705 1280 12.8705 1344 12.8705C1408 12.8705 1472 12.8705 1536 12.8705C1600 12.8705 1664 12.8705 1728 12.8705C1792 12.8705 1856 12.8705 1888 12.8705H1920V167.877Z" fill="url(#paint0_linear_435_29)"/>
<path fill-rule="evenodd" clip-rule="evenodd" d="M1920 244.543L1891 219.081C1862 193.619 1804 142.694 1745 127.311C1687 111.927 1629 132.615 1571 127.311C1513 122.006 1455 91.7699 1396 66.3077C1338 40.8456 1280 20.1575 1222 30.7668C1164 40.8456 1105 81.6911 1047 132.615C989 183.54 985 198.923 927 219.081C869 239.769 838.5 178.235 780.5 132.615C722.5 86.4653 623 61.0031 565 66.3077C506 71.0819 407 193.619 349 203.697C291 213.776 233 152.773 175 142.694C116 132.615 58 172.931 29 193.619L0 213.776V2.47123e-05H29C58 2.47123e-05 116 2.47123e-05 175 2.47123e-05C233 2.47123e-05 291 2.47123e-05 349 2.47123e-05C407 2.47123e-05 465 2.47123e-05 524 2.47123e-05C582 2.47123e-05 640 2.47123e-05 698 2.47123e-05C756 2.47123e-05 815 2.47123e-05 873 2.47123e-05C931 2.47123e-05 989 2.47123e-05 1047 2.47123e-05C1105 2.47123e-05 1164 2.47123e-05 1222 2.47123e-05C1280 2.47123e-05 1338 2.47123e-05 1396 2.47123e-05C1455 2.47123e-05 1513 2.47123e-05 1571 2.47123e-05C1629 2.47123e-05 1687 2.47123e-05 1745 2.47123e-05C1804 2.47123e-05 1862 2.47123e-05 1891 2.47123e-05H1920V244.543Z" fill="url(#paint1_linear_435_29)"/>
<path fill-rule="evenodd" clip-rule="evenodd" d="M1920 104.094L1874 90.3592C1829 76.2632 1737 48.4326 1646 38.3123C1554 27.8306 1387.5 58.9142 1295.5 86.7449C1204.5 114.576 1199 136.101 1107 157.064C1016 177.666 996.5 135.178 905.5 104.094C813.5 72.6489 655.5 61.2829 564.5 50.8012C472.5 40.3196 405.5 90.3592 313.5 104.094C222.5 118.19 91 90.3592 46 86.7449L0 83.1305V2.06433e-05H46C91 2.06433e-05 183 2.06433e-05 274 2.06433e-05C366 2.06433e-05 457 2.06433e-05 549 2.06433e-05C640 2.06433e-05 731 2.06433e-05 823 2.06433e-05C914 2.06433e-05 1006 2.06433e-05 1097 2.06433e-05C1189 2.06433e-05 1280 2.06433e-05 1371 2.06433e-05C1463 2.06433e-05 1554 2.06433e-05 1646 2.06433e-05C1737 2.06433e-05 1829 2.06433e-05 1874 2.06433e-05H1920V104.094Z" fill="url(#paint2_linear_435_29)"/>
<path fill-rule="evenodd" clip-rule="evenodd" d="M0 532.666L32 517.057C64 501.449 128 470.771 192 491.223C256 512.213 320 584.335 384 574.108C448 563.882 512 522.44 576 517.057C640 512.213 704 542.892 768 589.717C832 636.004 896 646.23 960 620.395C1024 594.561 1088 532.666 1152 527.284C1216 522.44 1280 574.108 1344 604.787C1408 636.003 1472 646.23 1536 636.004C1600 625.777 1724 602.834 1788 561.392C1852 520.487 1841 531.819 1873 505.985L1920 465.653V687.672H1888C1856 687.672 1792 687.672 1728 687.672C1664 687.672 1600 687.672 1536 687.672C1472 687.672 1408 687.672 1344 687.672C1280 687.672 1216 687.672 1152 687.672C1088 687.672 1024 687.672 960 687.672C896 687.672 832 687.672 768 687.672C704 687.672 640 687.672 576 687.672C512 687.672 448 687.672 384 687.672C320 687.672 256 687.672 192 687.672C128 687.672 64 687.672 32 687.672H0L0 532.666Z" fill="url(#paint3_linear_435_29)"/>
<path fill-rule="evenodd" clip-rule="evenodd" d="M0 456L29 481.462C58 506.924 116 557.849 175 573.232C233 588.616 291 567.927 349 573.232C407 578.537 465 608.773 524 634.235C582 659.697 640 680.385 698 669.776C756 659.697 815 618.852 873 567.927C931 517.003 935 501.62 993 481.462C1051 460.774 1081.5 522.308 1139.5 567.928C1197.5 614.078 1297 639.54 1355 634.235C1414 629.461 1513 506.924 1571 496.846C1629 486.767 1687 547.77 1745 557.849C1804 567.927 1862 527.612 1891 506.924L1920 486.767V700.543H1891C1862 700.543 1804 700.543 1745 700.543C1687 700.543 1629 700.543 1571 700.543C1513 700.543 1455 700.543 1396 700.543C1338 700.543 1280 700.543 1222 700.543C1164 700.543 1105 700.543 1047 700.543C989 700.543 931 700.543 873 700.543C815 700.543 756 700.543 698 700.543C640 700.543 582 700.543 524 700.543C465 700.543 407 700.543 349 700.543C291 700.543 233 700.543 175 700.543C116 700.543 58 700.543 29 700.543H0L0 456Z" fill="url(#paint4_linear_435_29)"/>
<path fill-rule="evenodd" clip-rule="evenodd" d="M0 596.449L46 610.184C91 624.28 183 652.11 274 662.231C366 672.712 532.5 641.629 624.5 613.798C715.5 585.967 721 564.442 813 543.479C904 522.877 923.5 565.365 1014.5 596.449C1106.5 627.894 1264.5 639.26 1355.5 649.742C1447.5 660.223 1514.5 610.184 1606.5 596.449C1697.5 582.353 1829 610.184 1874 613.798L1920 617.412V700.543H1874C1829 700.543 1737 700.543 1646 700.543C1554 700.543 1463 700.543 1371 700.543C1280 700.543 1189 700.543 1097 700.543C1006 700.543 914 700.543 823 700.543C731 700.543 640 700.543 549 700.543C457 700.543 366 700.543 274 700.543C183 700.543 91 700.543 46 700.543H0L0 596.449Z" fill="url(#paint5_linear_435_29)"/>
<path fill-rule="evenodd" clip-rule="evenodd" d="M1920 1692.88L1888 1708.49C1856 1724.09 1792 1754.77 1728 1734.32C1664 1713.33 1600 1641.21 1536 1651.43C1472 1661.66 1408 1703.1 1344 1708.49C1280 1713.33 1216 1682.65 1152 1635.83C1088 1589.54 1024 1579.31 960 1605.15C896 1630.98 832 1692.88 768 1698.26C704 1703.1 640 1651.43 576 1620.76C512 1589.54 448 1579.31 384 1589.54C320 1599.77 196 1622.71 132 1664.15C68 1705.06 79 1693.72 47 1719.56L0 1759.89V1537.87H32C64 1537.87 128 1537.87 192 1537.87C256 1537.87 320 1537.87 384 1537.87C448 1537.87 512 1537.87 576 1537.87C640 1537.87 704 1537.87 768 1537.87C832 1537.87 896 1537.87 960 1537.87C1024 1537.87 1088 1537.87 1152 1537.87C1216 1537.87 1280 1537.87 1344 1537.87C1408 1537.87 1472 1537.87 1536 1537.87C1600 1537.87 1664 1537.87 1728 1537.87C1792 1537.87 1856 1537.87 1888 1537.87H1920V1692.88Z" fill="url(#paint6_linear_435_29)"/>
<path fill-rule="evenodd" clip-rule="evenodd" d="M1920 1769.54L1891 1744.08C1862 1718.62 1804 1667.69 1745 1652.31C1687 1636.93 1629 1657.62 1571 1652.31C1513 1647.01 1455 1616.77 1396 1591.31C1338 1565.85 1280 1545.16 1222 1555.77C1164 1565.85 1105 1606.69 1047 1657.62C989 1708.54 985 1723.92 927 1744.08C869 1764.77 838.5 1703.24 780.5 1657.62C722.5 1611.47 623 1586 565 1591.31C506 1596.08 407 1718.62 349 1728.7C291 1738.78 233 1677.77 175 1667.69C116 1657.62 58 1697.93 29 1718.62L0 1738.78V1525H29C58 1525 116 1525 175 1525C233 1525 291 1525 349 1525C407 1525 465 1525 524 1525C582 1525 640 1525 698 1525C756 1525 815 1525 873 1525C931 1525 989 1525 1047 1525C1105 1525 1164 1525 1222 1525C1280 1525 1338 1525 1396 1525C1455 1525 1513 1525 1571 1525C1629 1525 1687 1525 1745 1525C1804 1525 1862 1525 1891 1525H1920V1769.54Z" fill="url(#paint7_linear_435_29)"/>
<path fill-rule="evenodd" clip-rule="evenodd" d="M1920 1629.09L1874 1615.36C1829 1601.26 1737 1573.43 1646 1563.31C1554 1552.83 1387.5 1583.91 1295.5 1611.74C1204.5 1639.58 1199 1661.1 1107 1682.06C1016 1702.67 996.5 1660.18 905.5 1629.09C813.5 1597.65 655.5 1586.28 564.5 1575.8C472.5 1565.32 405.5 1615.36 313.5 1629.09C222.5 1643.19 91 1615.36 46 1611.74L0 1608.13V1525H46C91 1525 183 1525 274 1525C366 1525 457 1525 549 1525C640 1525 731 1525 823 1525C914 1525 1006 1525 1097 1525C1189 1525 1280 1525 1371 1525C1463 1525 1554 1525 1646 1525C1737 1525 1829 1525 1874 1525H1920V1629.09Z" fill="url(#paint8_linear_435_29)"/>
<defs>
<linearGradient id="paint0_linear_435_29" x1="960" y1="102.736" x2="960" y2="12.8706" gradientUnits="userSpaceOnUse">
<stop stop-color="#BF807A"/>
<stop offset="1" stop-color="#BF784E" stop-opacity="0.317235"/>
<stop offset="1" stop-color="#BF784E" stop-opacity="0.317235"/>
</linearGradient>
<linearGradient id="paint1_linear_435_29" x1="960" y1="244.543" x2="960" y2="1.52588e-05" gradientUnits="userSpaceOnUse">
<stop stop-color="#F8A69E"/>
<stop offset="0.0001" stop-color="#BF807A"/>
<stop offset="1" stop-color="#BF807A" stop-opacity="0"/>
<stop offset="1" stop-color="#BF807A" stop-opacity="0"/>
<stop offset="1" stop-color="#BF807A"/>
</linearGradient>
<linearGradient id="paint2_linear_435_29" x1="960" y1="162.492" x2="960" y2="-1.37971e-05" gradientUnits="userSpaceOnUse">
<stop stop-color="#BF807A"/>
<stop offset="1" stop-color="#8A6F6F"/>
</linearGradient>
<linearGradient id="paint3_linear_435_29" x1="960" y1="597.807" x2="960" y2="687.672" gradientUnits="userSpaceOnUse">
<stop stop-color="#DFDFDF"/>
<stop offset="1" stop-color="white" stop-opacity="0.35"/>
</linearGradient>
<linearGradient id="paint4_linear_435_29" x1="960" y1="456" x2="960" y2="700.543" gradientUnits="userSpaceOnUse">
<stop stop-color="#D5D5D5"/>
<stop offset="0.0001" stop-color="#D5D5D5"/>
<stop offset="1" stop-color="#CACACA"/>
</linearGradient>
<linearGradient id="paint5_linear_435_29" x1="960" y1="538.051" x2="960" y2="700.543" gradientUnits="userSpaceOnUse">
<stop stop-color="#B0B0B0"/>
<stop offset="1" stop-color="#D3D3D3"/>
</linearGradient>
<linearGradient id="paint6_linear_435_29" x1="960" y1="1627.74" x2="960" y2="1537.87" gradientUnits="userSpaceOnUse">
<stop stop-color="#DFDFDF"/>
<stop offset="1" stop-color="white" stop-opacity="0.35"/>
</linearGradient>
<linearGradient id="paint7_linear_435_29" x1="960" y1="1769.54" x2="960" y2="1525" gradientUnits="userSpaceOnUse">
<stop stop-color="#D5D5D5"/>
<stop offset="0.0001" stop-color="#D5D5D5"/>
<stop offset="1" stop-color="#CACACA"/>
</linearGradient>
<linearGradient id="paint8_linear_435_29" x1="960" y1="1687.49" x2="960" y2="1525" gradientUnits="userSpaceOnUse">
<stop stop-color="#B0B0B0"/>
<stop offset="1" stop-color="#D3D3D3"/>
</linearGradient>
</defs>
</svg>
