<svg width="1920" height="1197" viewBox="0 0 1920 1197" fill="none" xmlns="http://www.w3.org/2000/svg">
<g clip-path="url(#clip0_364_79)">
<rect width="1920" height="1197" fill="url(#paint0_linear_364_79)"/>
<g filter="url(#filter0_d_364_79)">
<path fill-rule="evenodd" clip-rule="evenodd" d="M0 1048.49L32 1034.55C64 1020.61 128 993.209 192 1011.48C256 1030.23 320 1094.64 384 1085.51C448 1076.37 512 1039.36 576 1034.55C640 1030.23 704 1057.63 768 1099.45C832 1140.79 896 1149.93 960 1126.85C1024 1103.78 1088 1048.49 1152 1043.69C1216 1039.36 1280 1085.51 1344 1112.91C1408 1140.79 1472 1149.93 1536 1140.79C1600 1131.66 1724 1111.17 1788 1074.15C1852 1037.61 1841 1047.74 1873 1024.66L1920 988.638V1186.94H1888C1856 1186.94 1792 1186.94 1728 1186.94C1664 1186.94 1600 1186.94 1536 1186.94C1472 1186.94 1408 1186.94 1344 1186.94C1280 1186.94 1216 1186.94 1152 1186.94C1088 1186.94 1024 1186.94 960 1186.94C896 1186.94 832 1186.94 768 1186.94C704 1186.94 640 1186.94 576 1186.94C512 1186.94 448 1186.94 384 1186.94C320 1186.94 256 1186.94 192 1186.94C128 1186.94 64 1186.94 32 1186.94H0V1048.49Z" fill="url(#paint1_linear_364_79)" shape-rendering="crispEdges"/>
</g>
<path fill-rule="evenodd" clip-rule="evenodd" d="M0 980.017L29 1002.76C58 1025.5 116 1070.99 175 1084.73C233 1098.47 291 1079.99 349 1084.73C407 1089.46 465 1116.47 524 1139.21C582 1161.95 640 1180.43 698 1170.96C756 1161.95 815 1125.47 873 1079.99C931 1034.5 935 1020.76 993 1002.76C1051 984.281 1081.5 1039.24 1139.5 1079.99C1197.5 1121.21 1297 1143.95 1355 1139.21C1414 1134.95 1513 1025.5 1571 1016.5C1629 1007.5 1687 1061.98 1745 1070.99C1804 1079.99 1862 1043.98 1891 1025.5L1920 1007.5V1198.44H1891C1862 1198.44 1804 1198.44 1745 1198.44C1687 1198.44 1629 1198.44 1571 1198.44C1513 1198.44 1455 1198.44 1396 1198.44C1338 1198.44 1280 1198.44 1222 1198.44C1164 1198.44 1105 1198.44 1047 1198.44C989 1198.44 931 1198.44 873 1198.44C815 1198.44 756 1198.44 698 1198.44C640 1198.44 582 1198.44 524 1198.44C465 1198.44 407 1198.44 349 1198.44C291 1198.44 233 1198.44 175 1198.44C116 1198.44 58 1198.44 29 1198.44H0V980.017Z" fill="url(#paint2_linear_364_79)"/>
<path fill-rule="evenodd" clip-rule="evenodd" d="M0 1105.46L46 1117.73C91 1130.32 183 1155.18 274 1164.22C366 1173.58 532.5 1145.82 624.5 1120.96C715.5 1096.1 721 1076.87 813 1058.15C904 1039.75 923.5 1077.7 1014.5 1105.46C1106.5 1133.55 1264.5 1143.7 1355.5 1153.06C1447.5 1162.42 1514.5 1117.73 1606.5 1105.46C1697.5 1092.87 1829 1117.73 1874 1120.96L1920 1124.19V1198.44H1874C1829 1198.44 1737 1198.44 1646 1198.44C1554 1198.44 1463 1198.44 1371 1198.44C1280 1198.44 1189 1198.44 1097 1198.44C1006 1198.44 914 1198.44 823 1198.44C731 1198.44 640 1198.44 549 1198.44C457 1198.44 366 1198.44 274 1198.44C183 1198.44 91 1198.44 46 1198.44H0V1105.46Z" fill="url(#paint3_linear_364_79)"/>
<path fill-rule="evenodd" clip-rule="evenodd" d="M1920.01 149.944L1888.01 163.888C1856.01 177.832 1792.01 205.24 1728.01 186.979C1664.01 168.237 1600.01 103.826 1536.01 112.966C1472.01 122.106 1408.01 159.128 1344.01 163.942C1280.01 168.274 1216.01 140.879 1152 99.0626C1088 57.7267 1024 48.5992 960.004 71.6802C896.005 94.7612 832.007 150.051 768.008 154.864C704.008 159.197 640.006 113.054 576.004 85.6587C512.003 57.783 448.002 48.6555 384.003 57.7955C320.003 66.9355 196.004 87.4398 132.006 124.462C68.0078 161.003 79.0073 150.88 47.0084 173.958L0.0101318 209.986L0.000740124 11.6836L32.0007 11.6805C64.0007 11.6773 128.001 11.6711 192.001 11.6648C256.001 11.6586 320.001 11.6523 384.001 11.6461C448.001 11.6398 512.001 11.6335 576.001 11.6273C640.001 11.621 704.001 11.6148 768.001 11.6085C832.001 11.6022 896.001 11.596 960.001 11.5897C1024 11.5835 1088 11.5772 1152 11.5709C1216 11.5647 1280 11.5584 1344 11.5522C1408 11.5459 1472 11.5397 1536 11.5334C1600 11.5271 1664 11.5209 1728 11.5146C1792 11.5084 1856 11.5021 1888 11.499L1920 11.4958L1920.01 149.944Z" fill="url(#paint4_linear_364_79)"/>
<path fill-rule="evenodd" clip-rule="evenodd" d="M1920.01 218.42L1891.01 195.681C1862.01 172.941 1804.01 127.463 1745.01 113.728C1687.01 99.9938 1629.01 118.478 1571.01 113.745C1513.01 109.013 1455 82.0122 1396 59.2758C1338 36.5392 1280 18.0668 1222 27.5484C1164 36.5562 1105 73.0443 1047.01 118.534C989.008 164.025 985.009 177.765 927.01 195.775C869.01 214.259 838.508 159.301 780.506 118.56C722.504 77.3459 623.003 54.6134 565.003 59.357C506.003 63.627 407.008 173.084 349.009 182.091C291.009 191.099 233.007 136.618 175.006 127.622C116.006 118.626 58.0076 154.64 29.0085 173.121L0.00931864 191.128L0.000275623 0.18775L29.0003 0.184914C58.0003 0.182078 116 0.176406 175 0.170636C233 0.164964 291 0.159292 349 0.15362C407 0.147948 465 0.142276 524 0.136506C582 0.130834 640 0.125162 698 0.11949C756 0.113818 815 0.108048 873 0.102376C931 0.0967036 989 0.0910315 1047 0.0853594C1105 0.0796873 1164 0.0739175 1222 0.0682454C1280 0.0625733 1338 0.0569012 1396 0.0512291C1455 0.0454592 1513 0.0397871 1571 0.0341151C1629 0.028443 1687 0.0227709 1745 0.0170988C1804 0.0113289 1862 0.00565683 1891 0.00282078L1920 -1.52588e-05L1920.01 218.42Z" fill="url(#paint5_linear_364_79)"/>
<path fill-rule="evenodd" clip-rule="evenodd" d="M1920 92.9743L1874 80.7113C1829 68.1255 1737 43.2768 1646 34.2465C1554 24.8935 1387.5 52.6729 1295.5 77.5396C1204.51 102.406 1199.01 121.632 1107.01 140.365C1016.01 158.775 996.506 120.828 905.505 93.0736C813.503 64.9966 655.503 54.8602 564.502 45.5071C472.502 36.1541 405.504 80.8549 313.505 93.1314C222.505 105.731 91.0039 80.8857 46.0038 77.6618L0.00361615 74.4381L9.96222e-05 0.187824L46.0001 0.183325C91.0001 0.178925 183 0.169928 274 0.161028C366 0.152031 457 0.143132 549 0.134135C640 0.125235 731 0.116336 823 0.107339C914 0.0984397 1006 0.0894426 1097 0.0805432C1189 0.0715461 1280 0.0626468 1371 0.0537475C1463 0.0447504 1554 0.0358511 1646 0.026854C1737 0.0179547 1829 0.0089576 1874 0.00455684L1920 5.82933e-05L1920 92.9743Z" fill="url(#paint6_linear_364_79)"/>
<path d="M1076.5 316.674L774 316.674" stroke="#DEABAB" stroke-width="4"/>
<line x1="776" y1="315.977" x2="781.011" y2="758.949" stroke="#DEABAB" stroke-width="4"/>
<line x1="1075" y1="315.992" x2="1076" y2="582.992" stroke="#DEABAB" stroke-width="4"/>
<path d="M1210 581V964.001" stroke="#DEABAB" stroke-width="4"/>
<path d="M1212 583H1074" stroke="#DEABAB" stroke-width="4"/>
<path d="M950 759L950 964" stroke="#DEABAB" stroke-width="4"/>
<path d="M952 759L779.006 759.429" stroke="#DEABAB" stroke-width="4"/>
<path d="M1212 962.574L950 962.574" stroke="#DEABAB" stroke-width="4"/>
</g>
<defs>
<filter id="filter0_d_364_79" x="-4" y="988.638" width="1928" height="206.302" filterUnits="userSpaceOnUse" color-interpolation-filters="sRGB">
<feFlood flood-opacity="0" result="BackgroundImageFix"/>
<feColorMatrix in="SourceAlpha" type="matrix" values="0 0 0 0 0 0 0 0 0 0 0 0 0 0 0 0 0 0 127 0" result="hardAlpha"/>
<feOffset dy="4"/>
<feGaussianBlur stdDeviation="2"/>
<feComposite in2="hardAlpha" operator="out"/>
<feColorMatrix type="matrix" values="0 0 0 0 0 0 0 0 0 0 0 0 0 0 0 0 0 0 0.25 0"/>
<feBlend mode="normal" in2="BackgroundImageFix" result="effect1_dropShadow_364_79"/>
<feBlend mode="normal" in="SourceGraphic" in2="effect1_dropShadow_364_79" result="shape"/>
</filter>
<linearGradient id="paint0_linear_364_79" x1="1920" y1="-9.47604e-05" x2="-170.809" y2="631.261" gradientUnits="userSpaceOnUse">
<stop stop-color="#BF807A"/>
<stop offset="0.9999" stop-color="#BF784E" stop-opacity="0.317235"/>
<stop offset="1" stop-color="#D28E5E" stop-opacity="0.300029"/>
<stop offset="1" stop-color="#F2B279" stop-opacity="0.271092"/>
<stop offset="1" stop-color="#F2DB66" stop-opacity="0"/>
<stop offset="1" stop-color="#401201" stop-opacity="0.385473"/>
<stop offset="1" stop-color="#401201" stop-opacity="0.385473"/>
</linearGradient>
<linearGradient id="paint1_linear_364_79" x1="960" y1="1106.68" x2="960" y2="1186.94" gradientUnits="userSpaceOnUse">
<stop stop-color="#BF807A"/>
<stop offset="1" stop-color="#BF784E" stop-opacity="0.317235"/>
<stop offset="1" stop-color="#BF784E" stop-opacity="0.317235"/>
</linearGradient>
<linearGradient id="paint2_linear_364_79" x1="960" y1="980.017" x2="960" y2="1198.44" gradientUnits="userSpaceOnUse">
<stop stop-color="#F8A69E"/>
<stop offset="0.0001" stop-color="#BF807A"/>
<stop offset="1" stop-color="#BF807A" stop-opacity="0"/>
<stop offset="1" stop-color="#BF807A" stop-opacity="0"/>
<stop offset="1" stop-color="#BF807A"/>
</linearGradient>
<linearGradient id="paint3_linear_364_79" x1="960" y1="1053.3" x2="960" y2="1198.44" gradientUnits="userSpaceOnUse">
<stop stop-color="#BF807A"/>
<stop offset="1" stop-color="#8A6F6F"/>
</linearGradient>
<linearGradient id="paint4_linear_364_79" x1="960.005" y1="91.855" x2="959.997" y2="11.5897" gradientUnits="userSpaceOnUse">
<stop stop-color="#BF807A"/>
<stop offset="1" stop-color="#BF784E" stop-opacity="0.317235"/>
<stop offset="1" stop-color="#BF784E" stop-opacity="0.317235"/>
</linearGradient>
<linearGradient id="paint5_linear_364_79" x1="960.011" y1="218.514" x2="959.989" y2="0.0938686" gradientUnits="userSpaceOnUse">
<stop stop-color="#F8A69E"/>
<stop offset="0.0001" stop-color="#BF807A"/>
<stop offset="1" stop-color="#BF807A" stop-opacity="0"/>
<stop offset="1" stop-color="#BF807A" stop-opacity="0"/>
<stop offset="1" stop-color="#BF807A"/>
</linearGradient>
<linearGradient id="paint6_linear_364_79" x1="960.007" y1="145.228" x2="959.993" y2="-125.735" gradientUnits="userSpaceOnUse">
<stop stop-color="#BF807A"/>
<stop offset="1" stop-color="#8A6F6F"/>
</linearGradient>
<clipPath id="clip0_364_79">
<rect width="1920" height="1197" fill="white"/>
</clipPath>
</defs>
</svg>
