<svg width="1920" height="245" viewBox="0 0 1920 245" fill="none" xmlns="http://www.w3.org/2000/svg">
<path fill-rule="evenodd" clip-rule="evenodd" d="M1920 167.877L1888 183.486C1856 199.094 1792 229.772 1728 209.32C1664 188.33 1600 116.208 1536 126.435C1472 136.661 1408 178.103 1344 183.486C1280 188.33 1216 157.651 1152 110.826C1088 64.5395 1024 54.3133 960 80.1478C896 105.982 832 167.877 768 173.259C704 178.103 640 126.435 576 95.7561C512 64.5395 448 54.3133 384 64.5394C320 74.7656 196 97.7086 132 139.151C68 180.056 79 168.724 47 194.558L0 234.89V12.8705H32C64 12.8705 128 12.8705 192 12.8705C256 12.8705 320 12.8705 384 12.8705C448 12.8705 512 12.8705 576 12.8705C640 12.8705 704 12.8705 768 12.8705C832 12.8705 896 12.8705 960 12.8705C1024 12.8705 1088 12.8705 1152 12.8705C1216 12.8705 1280 12.8705 1344 12.8705C1408 12.8705 1472 12.8705 1536 12.8705C1600 12.8705 1664 12.8705 1728 12.8705C1792 12.8705 1856 12.8705 1888 12.8705H1920V167.877Z" fill="url(#paint0_linear_352_15)"/>
<path fill-rule="evenodd" clip-rule="evenodd" d="M1920 244.543L1891 219.081C1862 193.619 1804 142.694 1745 127.311C1687 111.927 1629 132.615 1571 127.311C1513 122.006 1455 91.7699 1396 66.3077C1338 40.8456 1280 20.1575 1222 30.7668C1164 40.8456 1105 81.6911 1047 132.615C989 183.54 985 198.923 927 219.081C869 239.769 838.5 178.235 780.5 132.615C722.5 86.4653 623 61.0031 565 66.3077C506 71.0819 407 193.619 349 203.697C291 213.776 233 152.773 175 142.694C116 132.615 58 172.931 29 193.619L0 213.776V2.47123e-05H29C58 2.47123e-05 116 2.47123e-05 175 2.47123e-05C233 2.47123e-05 291 2.47123e-05 349 2.47123e-05C407 2.47123e-05 465 2.47123e-05 524 2.47123e-05C582 2.47123e-05 640 2.47123e-05 698 2.47123e-05C756 2.47123e-05 815 2.47123e-05 873 2.47123e-05C931 2.47123e-05 989 2.47123e-05 1047 2.47123e-05C1105 2.47123e-05 1164 2.47123e-05 1222 2.47123e-05C1280 2.47123e-05 1338 2.47123e-05 1396 2.47123e-05C1455 2.47123e-05 1513 2.47123e-05 1571 2.47123e-05C1629 2.47123e-05 1687 2.47123e-05 1745 2.47123e-05C1804 2.47123e-05 1862 2.47123e-05 1891 2.47123e-05H1920V244.543Z" fill="url(#paint1_linear_352_15)"/>
<path fill-rule="evenodd" clip-rule="evenodd" d="M1920 104.094L1874 90.3592C1829 76.2632 1737 48.4326 1646 38.3123C1554 27.8306 1387.5 58.9142 1295.5 86.7449C1204.5 114.576 1199 136.101 1107 157.064C1016 177.666 996.5 135.178 905.5 104.094C813.5 72.6489 655.5 61.2829 564.5 50.8012C472.5 40.3196 405.5 90.3592 313.5 104.094C222.5 118.19 91 90.3592 46 86.7449L0 83.1305V2.06433e-05H46C91 2.06433e-05 183 2.06433e-05 274 2.06433e-05C366 2.06433e-05 457 2.06433e-05 549 2.06433e-05C640 2.06433e-05 731 2.06433e-05 823 2.06433e-05C914 2.06433e-05 1006 2.06433e-05 1097 2.06433e-05C1189 2.06433e-05 1280 2.06433e-05 1371 2.06433e-05C1463 2.06433e-05 1554 2.06433e-05 1646 2.06433e-05C1737 2.06433e-05 1829 2.06433e-05 1874 2.06433e-05H1920V104.094Z" fill="url(#paint2_linear_352_15)"/>
<defs>
<linearGradient id="paint0_linear_352_15" x1="960" y1="102.736" x2="960" y2="12.8706" gradientUnits="userSpaceOnUse">
<stop stop-color="#BF807A"/>
<stop offset="1" stop-color="#BF784E" stop-opacity="0.317235"/>
<stop offset="1" stop-color="#BF784E" stop-opacity="0.317235"/>
</linearGradient>
<linearGradient id="paint1_linear_352_15" x1="960" y1="244.543" x2="960" y2="1.52588e-05" gradientUnits="userSpaceOnUse">
<stop stop-color="#F8A69E"/>
<stop offset="0.0001" stop-color="#BF807A"/>
<stop offset="1" stop-color="#BF807A" stop-opacity="0"/>
<stop offset="1" stop-color="#BF807A" stop-opacity="0"/>
<stop offset="1" stop-color="#BF807A"/>
</linearGradient>
<linearGradient id="paint2_linear_352_15" x1="960" y1="162.492" x2="960" y2="-1.37971e-05" gradientUnits="userSpaceOnUse">
<stop stop-color="#BF807A"/>
<stop offset="1" stop-color="#8A6F6F"/>
</linearGradient>
</defs>
</svg>
