<svg width="1920" height="1204" viewBox="0 0 1920 1204" fill="none" xmlns="http://www.w3.org/2000/svg">
<g clip-path="url(#clip0_352_10)">
<rect width="1920" height="1296" fill="#F2F2F2"/>
<path fill-rule="evenodd" clip-rule="evenodd" d="M1920 138.371L1888 151.322C1856 164.274 1792 189.73 1728 172.759C1664 155.342 1600 95.4977 1536 103.983C1472 112.468 1408 146.856 1344 151.322C1280 155.342 1216 129.886 1152 91.0317C1088 52.6242 1024 44.1388 960 65.5756C896 87.0123 832 138.371 768 142.837C704 146.856 640 103.983 576 78.5269C512 52.6242 448 44.1388 384 52.6242C320 61.1096 196 80.1471 132 114.535C68 148.477 79 139.074 47 160.51L0 193.976V9.75075H32C64 9.75075 128 9.75075 192 9.75075C256 9.75075 320 9.75075 384 9.75075C448 9.75075 512 9.75075 576 9.75075C640 9.75075 704 9.75075 768 9.75075C832 9.75075 896 9.75075 960 9.75075C1024 9.75075 1088 9.75075 1152 9.75075C1216 9.75075 1280 9.75075 1344 9.75075C1408 9.75075 1472 9.75075 1536 9.75075C1600 9.75075 1664 9.75075 1728 9.75075C1792 9.75075 1856 9.75075 1888 9.75075H1920V138.371Z" fill="url(#paint0_linear_352_10)"/>
<path fill-rule="evenodd" clip-rule="evenodd" d="M1920 201.986L1891 180.858C1862 159.73 1804 117.475 1745 104.71C1687 91.9454 1629 109.112 1571 104.71C1513 100.308 1455 75.2192 1396 54.0914C1338 32.9636 1280 15.7972 1222 24.6005C1164 32.9636 1105 66.8561 1047 109.112C989 151.367 985 164.132 927 180.858C869 198.025 838.5 146.966 780.5 109.112C722.5 70.8175 623 49.6897 565 54.0914C506 58.0528 407 159.73 349 168.094C291 176.457 233 125.838 175 117.475C116 109.112 58 142.564 29 159.73L0 176.457V-0.92895H29C58 -0.92895 116 -0.92895 175 -0.92895C233 -0.92895 291 -0.92895 349 -0.92895C407 -0.92895 465 -0.92895 524 -0.92895C582 -0.92895 640 -0.92895 698 -0.92895C756 -0.92895 815 -0.92895 873 -0.92895C931 -0.92895 989 -0.92895 1047 -0.92895C1105 -0.92895 1164 -0.92895 1222 -0.92895C1280 -0.92895 1338 -0.92895 1396 -0.92895C1455 -0.92895 1513 -0.92895 1571 -0.92895C1629 -0.92895 1687 -0.92895 1745 -0.92895C1804 -0.92895 1862 -0.92895 1891 -0.92895H1920V201.986Z" fill="url(#paint1_linear_352_10)"/>
<path fill-rule="evenodd" clip-rule="evenodd" d="M1920 85.4453L1874 74.0487C1829 62.3522 1737 39.2591 1646 30.8616C1554 22.1642 1387.5 47.9565 1295.5 71.0496C1204.5 94.1427 1199 112.004 1107 129.398C1016 146.493 996.5 111.238 905.5 85.4454C813.5 59.3532 655.5 49.9219 564.5 41.2245C472.5 32.5271 405.5 74.0487 313.5 85.4453C222.5 97.1418 91 74.0487 46 71.0496L0 68.0505V-0.928923H46C91 -0.928923 183 -0.928923 274 -0.928923C366 -0.928923 457 -0.928923 549 -0.928923C640 -0.928923 731 -0.928923 823 -0.928923C914 -0.928923 1006 -0.928923 1097 -0.928923C1189 -0.928923 1280 -0.928923 1371 -0.928923C1463 -0.928923 1554 -0.928923 1646 -0.928923C1737 -0.928923 1829 -0.928923 1874 -0.928923H1920V85.4453Z" fill="url(#paint2_linear_352_10)"/>
</g>
<defs>
<linearGradient id="paint0_linear_352_10" x1="960" y1="84.3183" x2="960" y2="9.75076" gradientUnits="userSpaceOnUse">
<stop stop-color="#BF807A"/>
<stop offset="1" stop-color="#BF784E" stop-opacity="0.317235"/>
<stop offset="1" stop-color="#BF784E" stop-opacity="0.317235"/>
</linearGradient>
<linearGradient id="paint1_linear_352_10" x1="960" y1="201.986" x2="960" y2="-0.928955" gradientUnits="userSpaceOnUse">
<stop stop-color="#F8A69E"/>
<stop offset="0.0001" stop-color="#BF807A"/>
<stop offset="1" stop-color="#BF807A" stop-opacity="0"/>
<stop offset="1" stop-color="#BF807A" stop-opacity="0"/>
<stop offset="1" stop-color="#BF807A"/>
</linearGradient>
<linearGradient id="paint2_linear_352_10" x1="960" y1="133.903" x2="960" y2="-0.928949" gradientUnits="userSpaceOnUse">
<stop stop-color="#BF807A"/>
<stop offset="1" stop-color="#8A6F6F"/>
</linearGradient>
<clipPath id="clip0_352_10">
<rect width="1920" height="1204" fill="white"/>
</clipPath>
</defs>
</svg>
