<svg width="1920" height="1232" viewBox="0 0 1920 1232" fill="none" xmlns="http://www.w3.org/2000/svg">
<g clip-path="url(#clip0_314_79)">
<rect width="1920" height="1232" fill="white"/>
<path d="M1281.94 -287.019C1466.05 -344.565 1651.77 -315.406 1802.21 -254.398C1947.98 -195.281 2041.65 -90.6715 2081.12 37.0829C2122.8 172.014 2133.1 325.791 2023.65 462.387C1913.59 599.747 1717.48 684.285 1525.27 730.81C1345.37 774.357 1173.21 756.037 1022.18 704.801C865.448 651.631 707.865 578.638 678.291 443.476C648.967 309.454 767.129 166.553 875.669 35.2064C982.889 -94.5449 1101.67 -230.673 1281.94 -287.019Z" fill="url(#paint0_linear_314_79)"/>
<path d="M-314.829 918.043C-484.524 859.279 -541.824 647.823 -545.142 453.812C-548.463 259.616 -496.846 51.624 -330.817 -16.7637C-149.534 -91.4345 59.9567 -15.5291 172.204 158.336C275.548 318.411 224.383 525.474 122.178 684.901C19.4372 845.163 -143.183 977.483 -314.829 918.043Z" fill="url(#paint1_linear_314_79)"/>
<path d="M1937.12 17.2362C2035.58 70.1904 2123.92 154.558 2130.27 279.959C2136.7 406.961 2059.63 531.268 1968.11 629.392C1878.57 725.388 1765.27 800.665 1650.98 793.835C1539.72 787.187 1467.87 694.74 1414.07 596.283C1359.94 497.236 1315 381.038 1359.33 260.148C1404.1 138.054 1516.31 57.6921 1628.92 10.3457C1735.89 -34.6262 1845.46 -32.0524 1937.12 17.2362Z" fill="url(#paint2_linear_314_79)"/>
</g>
<defs>
<linearGradient id="paint0_linear_314_79" x1="1206.37" y1="-261.24" x2="269.314" y2="1046.07" gradientUnits="userSpaceOnUse">
<stop offset="0.12386" stop-color="#E6AEA8" stop-opacity="0.81"/>
<stop offset="1" stop-color="#FF4703" stop-opacity="0.6"/>
</linearGradient>
<linearGradient id="paint1_linear_314_79" x1="-138.118" y1="936.016" x2="-175.566" y2="-39.2712" gradientUnits="userSpaceOnUse">
<stop stop-color="#DEABAB"/>
<stop offset="1" stop-color="#FFDB80"/>
</linearGradient>
<linearGradient id="paint2_linear_314_79" x1="1930.49" y1="12.5152" x2="1499.45" y2="729.99" gradientUnits="userSpaceOnUse">
<stop stop-color="#F59D7C"/>
<stop offset="1" stop-color="#F48A8A"/>
</linearGradient>
<clipPath id="clip0_314_79">
<rect width="1920" height="1232" fill="white"/>
</clipPath>
</defs>
</svg>
