<svg width="1920" height="833" viewBox="0 0 1920 833" fill="none" xmlns="http://www.w3.org/2000/svg">
<g clip-path="url(#clip0_228_23)">
<rect width="1920" height="833" fill="url(#paint0_linear_228_23)"/>
<path fill-rule="evenodd" clip-rule="evenodd" d="M0 331.786L29 383.973C58 436.16 116 540.534 175 572.064C233 603.594 291 561.192 349 572.064C407 582.937 465 644.909 524 697.096C582 749.283 640 791.685 698 769.94C756 749.283 815 665.566 873 561.192C931 456.818 935 425.288 993 383.973C1051 341.571 1081.5 467.69 1139.5 561.192C1197.5 655.781 1297 707.968 1355 697.096C1414 687.311 1513 436.16 1571 415.503C1629 394.845 1687 519.877 1745 540.534C1804 561.192 1862 478.562 1891 436.16L1920 394.845V833H1891C1862 833 1804 833 1745 833C1687 833 1629 833 1571 833C1513 833 1455 833 1396 833C1338 833 1280 833 1222 833C1164 833 1105 833 1047 833C989 833 931 833 873 833C815 833 756 833 698 833C640 833 582 833 524 833C465 833 407 833 349 833C291 833 233 833 175 833C116 833 58 833 29 833H0V331.786Z" fill="url(#paint1_linear_228_23)"/>
<path fill-rule="evenodd" clip-rule="evenodd" d="M0 437.139L32 397.278C64 357.417 128 279.069 192 331.301C256 384.907 320 569.093 384 542.977C448 516.861 512 411.023 576 397.278C640 384.907 704 463.255 768 582.838C832 701.046 896 727.162 960 661.185C1024 595.208 1088 437.139 1152 423.394C1216 411.023 1280 542.977 1344 621.324C1408 701.046 1472 727.162 1536 701.046C1600 674.93 1724 616.338 1788 510.5C1852 406.037 1841 434.977 1873 369L1920 266V833H1888C1856 833 1792 833 1728 833C1664 833 1600 833 1536 833C1472 833 1408 833 1344 833C1280 833 1216 833 1152 833C1088 833 1024 833 960 833C896 833 832 833 768 833C704 833 640 833 576 833C512 833 448 833 384 833C320 833 256 833 192 833C128 833 64 833 32 833H0V437.139Z" fill="url(#paint2_linear_228_23)"/>
<path fill-rule="evenodd" clip-rule="evenodd" d="M0 544.742L46.0479 582.781C91.0948 621.822 183.191 698.902 274.285 726.931C366.381 755.961 530.052 769.422 622.147 692.342C713.242 615.262 721.751 456.095 813.847 398.035C904.942 340.975 924.462 458.652 1015.56 544.741C1107.65 631.832 1265.82 663.312 1356.91 692.342C1449.01 721.372 1516.08 582.781 1608.17 544.742C1699.27 505.701 1830.91 582.781 1875.95 592.792L1922 602.802V833.042H1875.95C1830.91 833.042 1738.81 833.042 1647.71 833.042C1555.62 833.042 1464.52 833.042 1372.43 833.042C1281.33 833.042 1190.24 833.042 1098.14 833.042C1007.05 833.042 914.952 833.042 823.857 833.042C731.761 833.042 640.667 833.042 549.572 833.042C457.476 833.042 366.381 833.042 274.285 833.042C183.191 833.042 91.0948 833.042 46.0479 833.042H0V544.742Z" fill="url(#paint3_linear_228_23)"/>
<path d="M1109.5 124.674L807 124.674" stroke="#DEABAB" stroke-width="4"/>
<line x1="809" y1="123.977" x2="814.011" y2="566.949" stroke="#DEABAB" stroke-width="4"/>
<line x1="1108" y1="123.992" x2="1109" y2="390.992" stroke="#DEABAB" stroke-width="4"/>
<path d="M1243 389V772.001" stroke="#DEABAB" stroke-width="4"/>
<path d="M1245 391L1107 391" stroke="#DEABAB" stroke-width="4"/>
<path d="M983 567L983 772" stroke="#DEABAB" stroke-width="4"/>
<path d="M985 567L812.006 567.429" stroke="#DEABAB" stroke-width="4"/>
<path d="M1245 770.574L983 770.574" stroke="#DEABAB" stroke-width="4"/>
</g>
<defs>
<linearGradient id="paint0_linear_228_23" x1="1920" y1="-6.59443e-05" x2="8.04011e-07" y2="833" gradientUnits="userSpaceOnUse">
<stop stop-color="#BF807A"/>
<stop offset="1" stop-color="#BF784E" stop-opacity="0.317235"/>
<stop offset="1" stop-color="#D28E5E" stop-opacity="0.300029"/>
<stop offset="1" stop-color="#F2B279" stop-opacity="0.271092"/>
<stop offset="1" stop-color="#F2DB66" stop-opacity="0"/>
<stop offset="1" stop-color="#401201" stop-opacity="0.385473"/>
</linearGradient>
<linearGradient id="paint1_linear_228_23" x1="960" y1="331.786" x2="960" y2="833" gradientUnits="userSpaceOnUse">
<stop stop-color="#F8A69E"/>
<stop offset="0.0001" stop-color="#BF807A"/>
<stop offset="1" stop-color="#BF807A" stop-opacity="0"/>
<stop offset="1" stop-color="#BF807A" stop-opacity="0"/>
<stop offset="1" stop-color="#BF807A"/>
</linearGradient>
<linearGradient id="paint2_linear_228_23" x1="960" y1="603.5" x2="960" y2="833" gradientUnits="userSpaceOnUse">
<stop stop-color="#BF807A"/>
<stop offset="1" stop-color="#BF784E" stop-opacity="0.317235"/>
</linearGradient>
<linearGradient id="paint3_linear_228_23" x1="961" y1="383" x2="961" y2="833.042" gradientUnits="userSpaceOnUse">
<stop stop-color="#BF807A"/>
<stop offset="1" stop-color="#8A6F6F"/>
</linearGradient>
<clipPath id="clip0_228_23">
<rect width="1920" height="833" fill="white"/>
</clipPath>
</defs>
</svg>
