<svg width="1920" height="833" viewBox="0 0 1920 833" fill="none" xmlns="http://www.w3.org/2000/svg">
<g clip-path="url(#clip0_314_108)">
<rect width="1920" height="833" fill="url(#paint0_linear_314_108)"/>
<g filter="url(#filter0_d_314_108)">
<path fill-rule="evenodd" clip-rule="evenodd" d="M0 729.653L32 719.951C64 710.25 128 691.181 192 703.893C256 716.94 320 761.769 384 755.412C448 749.056 512 723.297 576 719.951C640 716.94 704 736.009 768 765.114C832 793.884 896 800.241 960 784.183C1024 768.125 1088 729.653 1152 726.307C1216 723.297 1280 755.412 1344 774.481C1408 793.884 1472 800.241 1536 793.884C1600 787.528 1724 773.267 1788 747.508C1852 722.083 1841 729.127 1873 713.069L1920 688V826H1888C1856 826 1792 826 1728 826C1664 826 1600 826 1536 826C1472 826 1408 826 1344 826C1280 826 1216 826 1152 826C1088 826 1024 826 960 826C896 826 832 826 768 826C704 826 640 826 576 826C512 826 448 826 384 826C320 826 256 826 192 826C128 826 64 826 32 826H0V729.653Z" fill="url(#paint1_linear_314_108)" shape-rendering="crispEdges"/>
</g>
<path fill-rule="evenodd" clip-rule="evenodd" d="M0 682L29 697.826C58 713.653 116 745.306 175 754.868C233 764.43 291 751.571 349 754.868C407 758.165 465 776.959 524 792.785C582 808.612 640 821.471 698 814.876C756 808.612 815 783.223 873 751.571C931 719.918 935 710.356 993 697.826C1051 684.967 1081.5 723.215 1139.5 751.571C1197.5 780.256 1297 796.082 1355 792.785C1414 789.818 1513 713.653 1571 707.388C1629 701.124 1687 739.041 1745 745.306C1804 751.571 1862 726.512 1891 713.653L1920 701.124V834H1891C1862 834 1804 834 1745 834C1687 834 1629 834 1571 834C1513 834 1455 834 1396 834C1338 834 1280 834 1222 834C1164 834 1105 834 1047 834C989 834 931 834 873 834C815 834 756 834 698 834C640 834 582 834 524 834C465 834 407 834 349 834C291 834 233 834 175 834C116 834 58 834 29 834H0V682Z" fill="url(#paint2_linear_314_108)"/>
<path fill-rule="evenodd" clip-rule="evenodd" d="M0 769.299L46 777.836C91 786.597 183 803.896 274 810.186C366 816.701 532.5 797.381 624.5 780.082C715.5 762.784 721 749.404 813 736.374C904 723.569 923.5 749.978 1014.5 769.299C1106.5 788.844 1264.5 795.909 1355.5 802.424C1447.5 808.939 1514.5 777.836 1606.5 769.299C1697.5 760.537 1829 777.836 1874 780.082L1920 782.329V834H1874C1829 834 1737 834 1646 834C1554 834 1463 834 1371 834C1280 834 1189 834 1097 834C1006 834 914 834 823 834C731 834 640 834 549 834C457 834 366 834 274 834C183 834 91 834 46 834H0V769.299Z" fill="url(#paint3_linear_314_108)"/>
<path fill-rule="evenodd" clip-rule="evenodd" d="M1920.01 104.347L1888.01 114.051C1856.01 123.755 1792.01 142.828 1728.01 130.12C1664.01 117.077 1600 72.2532 1536.01 78.6138C1472.01 84.9744 1408.01 110.738 1344.01 114.088C1280.01 117.103 1216.01 98.0388 1152 68.9383C1088 40.1723 1024 33.8205 960.003 49.8827C896.004 65.9449 832.007 104.421 768.007 107.771C704.007 110.786 640.005 78.6748 576.004 59.6104C512.003 40.2116 448.002 33.8597 384.003 40.2202C320.003 46.5808 196.004 60.8499 132.006 86.6138C68.0074 112.043 79.007 104.999 47.0081 121.059L0.00976562 146.131L0.000373913 8.13067L32.0004 8.12849C64.0004 8.12631 128 8.12196 192 8.1176C256 8.11324 320 8.10889 384 8.10453C448 8.10018 512 8.09582 576 8.09147C640 8.08711 704 8.08276 768 8.0784C832 8.07404 896 8.06969 960 8.06533C1024 8.06098 1088 8.05662 1152 8.05227C1216 8.04791 1280 8.04356 1344 8.0392C1408 8.03484 1472 8.03049 1536 8.02613C1600 8.02178 1664 8.01742 1728 8.01307C1792 8.00871 1856 8.00436 1888 8.00218L1920 8L1920.01 104.347Z" fill="url(#paint4_linear_314_108)"/>
<path fill-rule="evenodd" clip-rule="evenodd" d="M1920.01 152L1891.01 136.176C1862.01 120.351 1804.01 88.702 1745.01 79.1442C1687 69.5863 1629.01 82.4493 1571.01 79.1561C1513.01 75.8628 1455 57.0728 1396 41.2504C1338 25.4279 1280 12.5728 1222 19.1711C1164 25.4397 1105 50.832 1047.01 82.4889C989.008 114.146 985.008 123.708 927.009 136.241C869.01 149.104 838.507 110.859 780.506 82.507C722.504 53.8255 623.002 38.0058 565.003 41.307C506.003 44.2784 407.008 120.45 349.009 126.719C291.009 132.987 233.006 95.0736 175.006 88.8129C116.006 82.5523 58.0072 107.615 29.0081 120.476L0.00895243 133.007L-9.05876e-05 0.130667L28.9999 0.128694C57.9999 0.12672 116 0.122773 175 0.118758C233 0.11481 291 0.110863 349 0.106916C407 0.102969 465 0.0990213 524 0.095006C582 0.0910588 640 0.0871115 698 0.0831643C756 0.079217 815 0.0752017 873 0.0712545C931 0.0673073 989 0.06336 1047 0.0594128C1105 0.0554655 1164 0.0514502 1222 0.047503C1280 0.0435558 1338 0.0396085 1396 0.0356613C1455 0.031646 1513 0.0276987 1571 0.0237515C1629 0.0198043 1687 0.015857 1745 0.0119098C1804 0.00789448 1862 0.00394724 1891 0.00197362L1920 0L1920.01 152Z" fill="url(#paint5_linear_314_108)"/>
<path fill-rule="evenodd" clip-rule="evenodd" d="M1920 64.7013L1874 56.1675C1829 47.4089 1737 30.1165 1646 23.8323C1554 17.3235 1387.5 36.6554 1295.5 53.9603C1204.5 71.2651 1199.01 84.6448 1107.01 97.6811C1016.01 110.493 996.506 84.0848 905.504 64.7704C813.503 45.2315 655.503 38.1775 564.502 31.6686C472.502 25.1598 405.504 56.2674 313.504 64.8107C222.505 73.5785 91.0038 56.2888 46.0036 54.0453L0.00347882 51.8019L-3.77064e-05 0.130667L46 0.127537C91 0.124474 183 0.118213 274 0.11202C366 0.105759 457 0.0995658 549 0.0933046C640 0.0871115 731 0.0809184 823 0.0746573C914 0.0684642 1006 0.0622031 1097 0.05601C1189 0.0497488 1280 0.0435558 1371 0.0373627C1463 0.0311015 1554 0.0249085 1646 0.0186473C1737 0.0124542 1829 0.00619309 1874 0.00313057L1920 0L1920 64.7013Z" fill="url(#paint6_linear_314_108)"/>
<path d="M1107.5 117.674L805 117.674" stroke="#DEABAB" stroke-width="4"/>
<line x1="807" y1="116.977" x2="812.011" y2="559.949" stroke="#DEABAB" stroke-width="4"/>
<line x1="1106" y1="116.992" x2="1107" y2="383.992" stroke="#DEABAB" stroke-width="4"/>
<path d="M1241 382V765.001" stroke="#DEABAB" stroke-width="4"/>
<path d="M1243 384L1105 384" stroke="#DEABAB" stroke-width="4"/>
<path d="M981 560L981 765" stroke="#DEABAB" stroke-width="4"/>
<path d="M983 560L810.006 560.429" stroke="#DEABAB" stroke-width="4"/>
<path d="M1243 763.574L981 763.574" stroke="#DEABAB" stroke-width="4"/>
</g>
<defs>
<filter id="filter0_d_314_108" x="-4" y="688" width="1928" height="146" filterUnits="userSpaceOnUse" color-interpolation-filters="sRGB">
<feFlood flood-opacity="0" result="BackgroundImageFix"/>
<feColorMatrix in="SourceAlpha" type="matrix" values="0 0 0 0 0 0 0 0 0 0 0 0 0 0 0 0 0 0 127 0" result="hardAlpha"/>
<feOffset dy="4"/>
<feGaussianBlur stdDeviation="2"/>
<feComposite in2="hardAlpha" operator="out"/>
<feColorMatrix type="matrix" values="0 0 0 0 0 0 0 0 0 0 0 0 0 0 0 0 0 0 0.25 0"/>
<feBlend mode="normal" in2="BackgroundImageFix" result="effect1_dropShadow_314_108"/>
<feBlend mode="normal" in="SourceGraphic" in2="effect1_dropShadow_314_108" result="shape"/>
</filter>
<linearGradient id="paint0_linear_314_108" x1="1920" y1="-6.59443e-05" x2="8.04011e-07" y2="833" gradientUnits="userSpaceOnUse">
<stop stop-color="#BF807A"/>
<stop offset="0.9999" stop-color="#BF784E" stop-opacity="0.317235"/>
<stop offset="1" stop-color="#D28E5E" stop-opacity="0.300029"/>
<stop offset="1" stop-color="#F2B279" stop-opacity="0.271092"/>
<stop offset="1" stop-color="#F2DB66" stop-opacity="0"/>
<stop offset="1" stop-color="#401201" stop-opacity="0.385473"/>
</linearGradient>
<linearGradient id="paint1_linear_314_108" x1="960" y1="770.143" x2="960" y2="826" gradientUnits="userSpaceOnUse">
<stop stop-color="#BF807A"/>
<stop offset="1" stop-color="#BF784E" stop-opacity="0.317235"/>
<stop offset="1" stop-color="#BF784E" stop-opacity="0.317235"/>
</linearGradient>
<linearGradient id="paint2_linear_314_108" x1="960" y1="682" x2="960" y2="834" gradientUnits="userSpaceOnUse">
<stop stop-color="#F8A69E"/>
<stop offset="0.0001" stop-color="#BF807A"/>
<stop offset="1" stop-color="#BF807A" stop-opacity="0"/>
<stop offset="1" stop-color="#BF807A" stop-opacity="0"/>
<stop offset="1" stop-color="#BF807A"/>
</linearGradient>
<linearGradient id="paint3_linear_314_108" x1="960" y1="733" x2="960" y2="834" gradientUnits="userSpaceOnUse">
<stop stop-color="#BF807A"/>
<stop offset="1" stop-color="#8A6F6F"/>
</linearGradient>
<linearGradient id="paint4_linear_314_108" x1="960.004" y1="63.9225" x2="960" y2="8.06534" gradientUnits="userSpaceOnUse">
<stop stop-color="#BF807A"/>
<stop offset="1" stop-color="#BF784E" stop-opacity="0.317235"/>
<stop offset="1" stop-color="#BF784E" stop-opacity="0.317235"/>
</linearGradient>
<linearGradient id="paint5_linear_314_108" x1="960.01" y1="152.065" x2="960" y2="0.0653336" gradientUnits="userSpaceOnUse">
<stop stop-color="#F8A69E"/>
<stop offset="0.0001" stop-color="#BF807A"/>
<stop offset="1" stop-color="#BF807A" stop-opacity="0"/>
<stop offset="1" stop-color="#BF807A" stop-opacity="0"/>
<stop offset="1" stop-color="#BF807A"/>
</linearGradient>
<linearGradient id="paint6_linear_314_108" x1="960.007" y1="101.065" x2="960" y2="-87.5" gradientUnits="userSpaceOnUse">
<stop stop-color="#BF807A"/>
<stop offset="1" stop-color="#8A6F6F"/>
</linearGradient>
<clipPath id="clip0_314_108">
<rect width="1920" height="833" fill="white"/>
</clipPath>
</defs>
</svg>
