<svg width="1920" height="172" viewBox="0 0 1920 172" fill="none" xmlns="http://www.w3.org/2000/svg">
<path fill-rule="evenodd" clip-rule="evenodd" d="M0 47.1852L32 36.195C64 25.2048 128 3.60342 192 18.0044C256 32.7843 320 83.5665 384 76.3661C448 69.1656 512 39.9847 576 36.195C640 32.7843 704 54.3857 768 87.3563C832 119.948 896 127.148 960 108.958C1024 90.767 1088 47.1852 1152 43.3955C1216 39.9847 1280 76.3661 1344 97.9675C1408 119.948 1472 127.148 1536 119.948C1600 112.747 1724 96.5927 1788 67.4118C1852 38.6099 1841 46.5891 1873 28.3984L1920 0V156.329H1888C1856 156.329 1792 156.329 1728 156.329C1664 156.329 1600 156.329 1536 156.329C1472 156.329 1408 156.329 1344 156.329C1280 156.329 1216 156.329 1152 156.329C1088 156.329 1024 156.329 960 156.329C896 156.329 832 156.329 768 156.329C704 156.329 640 156.329 576 156.329C512 156.329 448 156.329 384 156.329C320 156.329 256 156.329 192 156.329C128 156.329 64 156.329 32 156.329H0V47.1852Z" fill="url(#paint0_linear_314_92)"/>
<path fill-rule="evenodd" clip-rule="evenodd" d="M0 0L29 17.9285C58 35.857 116 71.7141 175 82.5459C233 93.3777 291 78.8108 349 82.5459C407 86.281 465 107.571 524 125.5C582 143.428 640 157.995 698 150.525C756 143.428 815 114.668 873 78.8108C931 42.9538 935 32.1219 993 17.9285C1051 3.36158 1081.5 46.6889 1139.5 78.8108C1197.5 111.306 1297 129.235 1355 125.5C1414 122.138 1513 35.857 1571 28.7603C1629 21.6636 1687 64.6174 1745 71.7141C1804 78.8108 1862 50.424 1891 35.8571L1920 21.6636V172.188H1891C1862 172.188 1804 172.188 1745 172.188C1687 172.188 1629 172.188 1571 172.188C1513 172.188 1455 172.188 1396 172.188C1338 172.188 1280 172.188 1222 172.188C1164 172.188 1105 172.188 1047 172.188C989 172.188 931 172.188 873 172.188C815 172.188 756 172.188 698 172.188C640 172.188 582 172.188 524 172.188C465 172.188 407 172.188 349 172.188C291 172.188 233 172.188 175 172.188C116 172.188 58 172.188 29 172.188H0V0Z" fill="url(#paint1_linear_314_92)"/>
<path fill-rule="evenodd" clip-rule="evenodd" d="M0 98.8937L46 108.565C91 118.49 183 138.086 274 145.212C366 152.592 532.5 130.706 624.5 111.109C715.5 91.5133 721 76.357 813 61.5963C904 47.09 923.5 77.007 1014.5 98.8936C1106.5 121.035 1264.5 129.038 1355.5 136.418C1447.5 143.799 1514.5 108.565 1606.5 98.8937C1697.5 88.9683 1829 108.565 1874 111.109L1920 113.654V172.188H1874C1829 172.188 1737 172.188 1646 172.188C1554 172.188 1463 172.188 1371 172.188C1280 172.188 1189 172.188 1097 172.188C1006 172.188 914 172.188 823 172.188C731 172.188 640 172.188 549 172.188C457 172.188 366 172.188 274 172.188C183 172.188 91 172.188 46 172.188H0V98.8937Z" fill="url(#paint2_linear_314_92)"/>
<defs>
<linearGradient id="paint0_linear_314_92" x1="960" y1="-66.8364" x2="960" y2="436.136" gradientUnits="userSpaceOnUse">
<stop stop-color="#F3887E"/>
<stop offset="1" stop-color="#BF784E" stop-opacity="0.317235"/>
<stop offset="1" stop-color="#F56C1B" stop-opacity="0.317235"/>
</linearGradient>
<linearGradient id="paint1_linear_314_92" x1="960" y1="0" x2="960" y2="172.188" gradientUnits="userSpaceOnUse">
<stop stop-color="#BF807A"/>
</linearGradient>
<linearGradient id="paint2_linear_314_92" x1="960" y1="57.7739" x2="960" y2="264.513" gradientUnits="userSpaceOnUse">
<stop stop-color="#BF807A"/>
<stop offset="1" stop-color="#8A6F6F"/>
</linearGradient>
</defs>
</svg>